<svg xmlns="http://www.w3.org/2000/svg" viewBox="0 0 64 64" role="img" aria-label="DatePass">
  <defs>
    <linearGradient id="bg" x1="10" y1="8" x2="54" y2="58" gradientUnits="userSpaceOnUse">
      <stop offset="0" stop-color="#ec4899"/>
      <stop offset="1" stop-color="#8b5cf6"/>
    </linearGradient>
    <linearGradient id="ticket" x1="16" y1="18" x2="48" y2="48" gradientUnits="userSpaceOnUse">
      <stop offset="0" stop-color="#fff7ed"/>
      <stop offset="1" stop-color="#ffffff"/>
    </linearGradient>
  </defs>
  <rect width="64" height="64" rx="16" fill="url(#bg)"/>
  <path
    d="M18 18h28a4 4 0 0 1 4 4v6a5 5 0 0 0 0 8v6a4 4 0 0 1-4 4H18a4 4 0 0 1-4-4v-6a5 5 0 0 0 0-8v-6a4 4 0 0 1 4-4Z"
    fill="url(#ticket)"
    stroke="#ffffff"
    stroke-width="2"
  />
  <circle cx="25" cy="31" r="4" fill="#db2777"/>
  <circle cx="39" cy="31" r="4" fill="#8b5cf6"/>
  <path d="M24 42h16" stroke="#db2777" stroke-width="4" stroke-linecap="round"/>
  <path d="M20 50h24" stroke="#c4b5fd" stroke-width="3" stroke-linecap="round" opacity=".85"/>
</svg>
